<svg width="1024" height="1024" viewBox="0 0 1024 1024" xmlns="http://www.w3.org/2000/svg">
  <!-- Background -->
  <rect width="1024" height="1024" fill="#7c3aed" rx="180"/>
  
  <!-- Icon Design - Smart Guide Logo -->
  <g transform="translate(512, 512)">
    <!-- Outer Circle -->
    <circle cx="0" cy="0" r="380" fill="none" stroke="#ffffff" stroke-width="40" opacity="0.3"/>
    
    <!-- Brain/Guide Symbol -->
    <path d="M -150,-100 Q -200,-150 -150,-200 Q -100,-250 -50,-200 Q 0,-150 50,-200 Q 100,-250 150,-200 Q 200,-150 150,-100 L 150,100 Q 150,150 100,150 L -100,150 Q -150,150 -150,100 Z" 
          fill="#ffffff" opacity="0.9"/>
    
    <!-- Inner Details -->
    <circle cx="-80" cy="-80" r="25" fill="#7c3aed"/>
    <circle cx="80" cy="-80" r="25" fill="#7c3aed"/>
    <path d="M -60,50 Q 0,80 60,50" stroke="#7c3aed" stroke-width="20" fill="none" stroke-linecap="round"/>
    
    <!-- Guide Lines -->
    <line x1="-250" y1="0" x2="-180" y2="0" stroke="#ffffff" stroke-width="30" stroke-linecap="round" opacity="0.8"/>
    <line x1="180" y1="0" x2="250" y2="0" stroke="#ffffff" stroke-width="30" stroke-linecap="round" opacity="0.8"/>
    <line x1="0" y1="-250" x2="0" y2="-180" stroke="#ffffff" stroke-width="30" stroke-linecap="round" opacity="0.8"/>
  </g>
  
  <!-- Text -->
  <text x="512" y="880" font-family="Arial, sans-serif" font-size="120" font-weight="bold" fill="#ffffff" text-anchor="middle">SG</text>
</svg>
